<svg xmlns="http://www.w3.org/2000/svg" xmlns:xlink="http://www.w3.org/1999/xlink" viewBox="0 0 447.31 447.31"><defs><style>.cls-1{fill:url(#Dégradé_sans_nom_7);}.cls-2{fill:#e6332a;}.cls-3,.cls-4,.cls-6{fill:none;stroke-miterlimit:10;}.cls-3{stroke:#1d1d1b;stroke-width:6px;}.cls-4,.cls-6{stroke:#fff;stroke-linecap:round;}.cls-4{stroke-width:3px;}.cls-5{fill:#fff;}.cls-6{stroke-width:6.86px;}</style><linearGradient id="Dégradé_sans_nom_7" x1="42.36" y1="40.11" x2="409.45" y2="407.2" gradientUnits="userSpaceOnUse"><stop offset="0" stop-color="#fcea10"/><stop offset="0.87" stop-color="#f39200"/></linearGradient></defs><g id="Calque_2" data-name="Calque 2"><g id="Calque_1-2" data-name="Calque 1"><rect class="cls-1" x="27.3" y="25.04" width="397.22" height="397.22" rx="51.43"/><path class="cls-2" d="M180.32,263.34,419.2,393.62c4.87-13.34,5.85-13.27,5.32-42.84V189.66l-153.81-69C183.57,120.69,181.85,132.34,180.32,263.34Z"/><rect class="cls-3" x="25.04" y="25.04" width="397.22" height="397.22" rx="51.43" transform="matrix(0.99, -0.16, 0.16, 0.99, -33.49, 39.48)"/><path class="cls-4" d="M85.28,338.08c.55.15,1,.25,1.07.27a17.31,17.31,0,0,0,4,.5,8.14,8.14,0,0,0,3.58-.66,2.07,2.07,0,0,0,1.33-1.94,2.63,2.63,0,0,0-.13-.84,3.55,3.55,0,0,0-.49-.9,7.17,7.17,0,0,0-1-1.1l-4.86-4.22c-1.14-1-1.93-1.66-2.37-2.09a14.69,14.69,0,0,1-2.13-2.45,8.57,8.57,0,0,1-1.12-2.3,8.81,8.81,0,0,1-.34-2.49,9.28,9.28,0,0,1,.06-1.06,8.63,8.63,0,0,1,.49-2m20,1.72c-.67-.18-1.18-.29-1.4-.33a17.32,17.32,0,0,0-3.37-.37,6.74,6.74,0,0,0-3.34.75,2.15,2.15,0,0,0-1.33,1.85,2.58,2.58,0,0,0,.21,1,5.06,5.06,0,0,0,.77,1.14,14.13,14.13,0,0,0,1.5,1.45c.62.52,1.59,1.3,2.91,2.33l1.86,1.47a20.46,20.46,0,0,1,1.77,1.62,17.08,17.08,0,0,1,1.65,1.88,10.5,10.5,0,0,1,1.07,1.7,7.5,7.5,0,0,1,.56,1.56,7.62,7.62,0,0,1,.18,1.69,9.44,9.44,0,0,1-4.26,7.87,13.08,13.08,0,0,1-4.47,1.9,23.62,23.62,0,0,1-5.14.54,56.09,56.09,0,0,1-9.62-1,1.2,1.2,0,0,1-1-1.1c-.1-1.43-.19-2.59-.26-3.45q0-.17,0-.39l0-.18m6.29-28.71a13.21,13.21,0,0,1,3.92-1.3,26.27,26.27,0,0,1,4.3-.35,48.64,48.64,0,0,1,8.7.86,1,1,0,0,1,.82,1c0,.88.09,1.7.14,2.46s.09,1.13.16,1.83"/><path class="cls-4" d="M118.48,310.79c1.32,0,3.14,0,5.44-.12s4.25-.11,5.85-.11a22.07,22.07,0,0,1,5.12.43,9.57,9.57,0,0,1,3,1.38,9,9,0,0,1,2.22,2.21,9.3,9.3,0,0,1,1.31,2.87,12.14,12.14,0,0,1,.44,3.29,12.33,12.33,0,0,1-1.67,6.31,10.48,10.48,0,0,1-4.72,4.28,16,16,0,0,1-6.83,1.41c-.43,0-.9,0-1.4-.06m-9.15,13.21c-.58,0-3,0-5,0a1.42,1.42,0,0,1-1.44-1.54l.39-5,.66-12.89.29-9.12c0-1,0-2,0-2.94m13,11.32a5.35,5.35,0,0,0,3.88-1.25,4.12,4.12,0,0,0,1.27-3.06,4,4,0,0,0-.28-1.55,2.61,2.61,0,0,0-.9-1.13,3.24,3.24,0,0,0-1.37-.56A9.64,9.64,0,0,0,127,318c-.62,0-1.26,0-1.93,0l-2.16.15q-.34,5-.52,11.06c-.22,7.39-.49,13.34-.49,14.82"/><path class="cls-4" d="M175.34,316.59c0,.11,0,.22,0,.33a1.51,1.51,0,0,1-1.55,1.44q-4-.15-6.83-.15h-5l-2.42.06a1.78,1.78,0,0,0-1.72,1.68l-.14,2.56a1.68,1.68,0,0,0,1.66,1.78c1.6,0,3.38,0,5.34,0,.79,0,2.65,0,5.57-.12a1.92,1.92,0,0,1,2,2c-.07,1.12-.15,2.37-.21,3.42a2.48,2.48,0,0,1-2.51,2.33L165,332c-1.95,0-4.08,0-6.41.12a1.68,1.68,0,0,0-1.62,1.6l-.12,2.49a2.13,2.13,0,0,0,2.13,2.23h.72c.87,0,2.68,0,5.43-.07l5.33-.13m3.45,7.68q-6.28-.06-13.78-.05l-11.34,0h-1.35a2.08,2.08,0,0,1-2.09-2.28q.48-5.14.72-8.84c.2-3,.4-7,.6-11.91s.29-8.25.29-9.86v-.36a1.86,1.86,0,0,1,1.88-1.89c3.65,0,7.93,0,12.81,0q8,0,14-.05"/><path class="cls-4" d="M191.69,334.7l-.16,3.24a.45.45,0,0,0,.45.47h2.49c.87,0,2.68,0,5.43-.07l5.33-.13,1.91-.08a1.8,1.8,0,0,1,1.9,1.93c-.08,1-.15,2.1-.21,3.17a2.79,2.79,0,0,1-2.79,2.64c-3.46,0-7.18,0-11.14,0l-11.34,0m26.72-32.07-.15,2.8c0,.45,0,.9,0,1.36a.46.46,0,0,1-.48.45c-3.11-.13-5.73-.19-7.88-.19h-5c-.8,0-2,0-3.64.1a.46.46,0,0,0-.44.43l-.26,5.05a.45.45,0,0,0,.43.48q2.88.06,6.63.06,1.38,0,7.17-.16a.45.45,0,0,1,.47.48q-.23,3-.43,6.92a.47.47,0,0,1-.46.44c-2.76,0-4.89,0-6.41,0s-2.86,0-3.73,0l-1.13,0m-14.4,10.12c.2-3,.73-14.37.92-19.32s.3-8.25.3-9.86a2.22,2.22,0,0,1,2.23-2.25q5.37,0,12.46,0c.83,0,2.18,0,9.61,0"/><path class="cls-4" d="M219.62,310.77c1.32,0,.94,0,2,0,1.41,0,3.26,0,5.54-.12s4.43-.11,6.44-.11a38.66,38.66,0,0,1,6.06.41,14,14,0,0,1,4.85,1.7,12,12,0,0,1,3.78,3.38,15.31,15.31,0,0,1,2.31,4.88,20.55,20.55,0,0,1,.8,5.76,24.46,24.46,0,0,1-.62,5.6,20.6,20.6,0,0,1-1.72,4.86,15.65,15.65,0,0,1-2.59,3.72,15.25,15.25,0,0,1-3.39,2.67,14.76,14.76,0,0,1-2.86,1.29,21.27,21.27,0,0,1-3.94.75,59.36,59.36,0,0,1-6.32.31l-10.41-.08c-.72,0-1.76,0-3.13,0a1.46,1.46,0,0,1-1.48-1.6c.3-3.16.5-5.75.62-7.77q.32-5.25.62-13.61.24-6.39.24-9.14m12.47,24.53a22,22,0,0,0,4.68-.46,7.46,7.46,0,0,0,3.62-2,9.14,9.14,0,0,0,2.31-3.9,16.2,16.2,0,0,0,.74-4.89,10.94,10.94,0,0,0-1.1-5.16,6.29,6.29,0,0,0-3-2.93,12.53,12.53,0,0,0-5-.82q-1.85,0-4.38.15l-.72,16.63"/><path class="cls-4" d="M262.89,345.87c-.35,0-2.92,0-5.3,0a1.76,1.76,0,0,1-1.76-1.93q.39-3.9.55-6.45.31-4.69.59-12.9t.29-11V313a2.23,2.23,0,0,1,2.24-2.22l12.19,0q5.73,0,11.09,0a1.7,1.7,0,0,1,1.72,1.83c-.11,1.68-.19,3-.23,4.09a1.84,1.84,0,0,1-1.91,1.75H282l-1.8,0-1.81,0h-7.22m-3.09,2.91-.08,1.92a1.19,1.19,0,0,0,1.17,1.23l2.52.05h4.18c1,0,2.29,0,4-.05a1.38,1.38,0,0,1,1.39,1.45c-.09,1.71-.15,3.19-.18,4.45a1.69,1.69,0,0,1-1.75,1.65c-1.9-.05-3.38-.08-4.42-.08-2.26,0-4.73.05-7.41.13l-.27,9.28,0,3.45"/><path class="cls-4" d="M300.19,324c-.23,5.13-.37,10-.39,11.15-.09,4.61-.13,6.12-.15,8.7a2,2,0,0,1-2,2c-1.74,0-4.21,0-5.62,0h-.9M288.23,343c.28-4,.65-9.39.91-15.37.15-3.45.31-8.05.37-13.54v-2a1.35,1.35,0,0,1,1.37-1.36l4.65,0,4.33,0a1.12,1.12,0,0,1,1.12,1.2c-.1,1.36-.2,3.52-.27,5.31"/><path class="cls-4" d="M338.54,323.25a9.78,9.78,0,0,1-1.38,2.83,9.27,9.27,0,0,1-2.37,2.3,19.28,19.28,0,0,1-3.28,1.68.78.78,0,0,0-.44,1l1.05,2.55c.38.91.78,1.84,1.21,2.78l3.45,7.55h0a1.34,1.34,0,0,1-1.23,1.9c-1.72,0-2.95,0-3.67,0l-4.24,0a2.45,2.45,0,0,1-2.37-1.74c-.26-.85-.58-1.93-1-3.22q-.44-1.52-.75-2.34-.61-1.83-1.83-5.13L320,328.66a1.69,1.69,0,0,1,1.63-2.26h.18a9.78,9.78,0,0,0,3.42-.56,4.63,4.63,0,0,0,2.32-1.75,4.49,4.49,0,0,0,.78-2.5,3.33,3.33,0,0,0-.59-1.95,3.57,3.57,0,0,0-1.87-1.25,14,14,0,0,0-3.93-.41c-.6,0-1.22,0-1.87,0h-.48a2,2,0,0,0-1.88,1.84q-.27,4.74-.48,11.1c0,1.35-.17,5.25-.26,10.33m-4.2,4.54h-4.69a1.92,1.92,0,0,1-1.94-2.12q.33-3.27.55-6,.29-3.63.49-8.43c.14-3.19.24-6.57.31-10.11q.08-4,.1-6.75a1.69,1.69,0,0,1,1.73-1.68c1.37,0,2.53,0,3.48,0,1.37,0,3,0,5-.12s3.9-.11,5.77-.11q3.3,0,5.88.25a14.24,14.24,0,0,1,3.51.75,10.12,10.12,0,0,1,2.67,1.38,8.38,8.38,0,0,1,1.8,1.82"/><path class="cls-4" d="M373.26,314.43l-.12,2.16c0,.6-.05,1.21-.05,1.83-3.31-.14-6.1-.21-8.35-.21h-5l-2.22.06a2,2,0,0,0-1.93,1.88l-.11,2a2,2,0,0,0,2,2.12q2.28,0,5,0c.77,0,2.59,0,5.45-.11a2,2,0,0,1,2.07,2.15c-.08,1.14-.15,2.38-.23,3.71a2,2,0,0,1-2,1.91l-4.92,0q-2.79,0-6.1.11a2,2,0,0,0-1.95,1.92l-.11,2.3a2,2,0,0,0,2,2.11h.85c.87,0,2.68,0,5.43-.07l5.33-.13c.41,0,1,0,1.67-.07A2,2,0,0,1,372,340.3c-.08,1.2-.16,2.42-.23,3.66a2,2,0,0,1-2,1.91q-5.51,0-11.88,0l-11.33,0h-1.9a1.59,1.59,0,0,1-1.6-1.73q.53-5.5.78-9.39c.2-3,.4-7,.59-11.91s.3-8.25.3-9.86v-.4a1.82,1.82,0,0,1,1.84-1.85h2.23c1.22,0,14.48,0,20,0"/><path class="cls-5" d="M262,117.61H185.89a7.72,7.72,0,0,0-7.72,7.72V257.87a7.72,7.72,0,0,0,7.72,7.72H262a7.71,7.71,0,0,0,7.72-7.72V125.33A7.71,7.71,0,0,0,262,117.61ZM224,138.5a17.24,17.24,0,1,1-17.24,17.23A17.22,17.22,0,0,1,224,138.5Zm0,110a28,28,0,1,1,28-28A28,28,0,0,1,224,248.48Z"/><circle class="cls-5" cx="223.95" cy="220.5" r="23.17"/><circle class="cls-5" cx="223.95" cy="155.73" r="12.85"/><rect class="cls-5" x="276.95" y="136.65" width="6.82" height="109.91" rx="3.41"/><rect class="cls-5" x="289.65" y="144.44" width="6.82" height="94.31" rx="3.41"/><rect class="cls-5" x="302.36" y="155.64" width="6.82" height="73.45" rx="3.41"/><rect class="cls-5" x="164.4" y="138.13" width="6.82" height="106.95" rx="3.41" transform="translate(335.62 383.2) rotate(-180)"/><rect class="cls-5" x="151.7" y="145.71" width="6.82" height="91.77" rx="3.41" transform="translate(310.21 383.2) rotate(180)"/><rect class="cls-5" x="138.99" y="156.61" width="6.82" height="71.47" rx="3.41" transform="translate(284.8 384.68) rotate(-180)"/><path class="cls-6" d="M319.64,192.52V145.74c0-49.22-42.47-89.12-94.86-89.12H223.5c-52.39,0-94.86,39.9-94.86,89.12v46.78"/></g></g></svg>