<svg xmlns="http://www.w3.org/2000/svg" viewBox="0 0 294.65 39.52"><defs><style>.cls-1{fill:none;stroke:#fff;stroke-linecap:round;stroke-miterlimit:10;stroke-width:3px;}</style></defs><g id="Calque_2" data-name="Calque 2"><g id="Calque_1-2" data-name="Calque 1"><path class="cls-1" d="M5.17,29.54c.55.15,1,.25,1.07.27a17.23,17.23,0,0,0,4,.5,8.14,8.14,0,0,0,3.58-.66,2.08,2.08,0,0,0,1.33-1.94,3,3,0,0,0-.13-.84,3.39,3.39,0,0,0-.49-.9,6.82,6.82,0,0,0-1-1.1L8.6,20.65c-1.14-1-1.93-1.66-2.38-2.09a15.68,15.68,0,0,1-2.13-2.45A8.16,8.16,0,0,1,3,13.8a8.74,8.74,0,0,1-.35-2.48,9.28,9.28,0,0,1,.07-1.06,8.63,8.63,0,0,1,.49-2m20,1.72c-.67-.18-1.19-.29-1.4-.33a16.57,16.57,0,0,0-3.37-.37,6.82,6.82,0,0,0-3.34.74,2.16,2.16,0,0,0-1.33,1.86,2.49,2.49,0,0,0,.21,1A4.58,4.58,0,0,0,14.77,14a13.21,13.21,0,0,0,1.5,1.44q.91.8,2.91,2.34L21,19.26a20.47,20.47,0,0,1,1.78,1.62,16.21,16.21,0,0,1,1.65,1.88,11.25,11.25,0,0,1,1.07,1.7A7.46,7.46,0,0,1,26.08,26a7.55,7.55,0,0,1,.18,1.69,9.46,9.46,0,0,1-1.1,4.42A9.3,9.3,0,0,1,22,35.58a13.06,13.06,0,0,1-4.47,1.89A23.08,23.08,0,0,1,12.4,38a56.09,56.09,0,0,1-9.62-1,1.21,1.21,0,0,1-1-1.1c-.09-1.43-.18-2.59-.25-3.45q0-.16,0-.39l0-.18M7.79,3.15a12.87,12.87,0,0,1,3.91-1.3A26.48,26.48,0,0,1,16,1.5a48.64,48.64,0,0,1,8.7.86,1,1,0,0,1,.82,1c0,.87.09,1.69.14,2.45s.09,1.14.16,1.84"/><path class="cls-1" d="M38.37,2.25c1.32,0,3.13,0,5.44-.12S48.06,2,49.66,2a22.07,22.07,0,0,1,5.12.43,9.67,9.67,0,0,1,3,1.38A9,9,0,0,1,60,6a9.3,9.3,0,0,1,1.31,2.87,12.53,12.53,0,0,1,.44,3.28,12.25,12.25,0,0,1-1.68,6.32,10.46,10.46,0,0,1-4.71,4.28,16.08,16.08,0,0,1-6.83,1.41,14,14,0,0,1-1.4-.07M38,37.35c-.58,0-3,0-5,0a1.43,1.43,0,0,1-1.44-1.54l.4-5,.66-12.89.28-9.12q0-1.47,0-2.94M46,17.12a5.37,5.37,0,0,0,3.88-1.25,4.12,4.12,0,0,0,1.27-3.06,4.05,4.05,0,0,0-.28-1.56,2.64,2.64,0,0,0-.9-1.12,3.29,3.29,0,0,0-1.37-.56,9.64,9.64,0,0,0-1.7-.13c-.62,0-1.26,0-1.93.05l-2.17.15c-.22,3.32-.39,7-.51,11.06-.22,7.39-.5,13.34-.5,14.82"/><path class="cls-1" d="M95.22,8.05c0,.11,0,.22,0,.33a1.51,1.51,0,0,1-1.55,1.44q-4-.15-6.84-.15h-5l-2.42.06a1.78,1.78,0,0,0-1.72,1.68L77.53,14a1.69,1.69,0,0,0,1.66,1.78c1.6,0,3.38,0,5.34,0,.79,0,2.64,0,5.57-.12a1.92,1.92,0,0,1,2,2c-.08,1.12-.15,2.37-.21,3.42a2.49,2.49,0,0,1-2.51,2.33l-4.48,0q-2.93,0-6.41.12a1.68,1.68,0,0,0-1.62,1.6l-.13,2.49a2.13,2.13,0,0,0,2.13,2.23h.73c.87,0,2.68,0,5.43-.07l5.33-.13m3.45,7.68Q87.5,37.29,80,37.29l-11.33,0H67.3a2.08,2.08,0,0,1-2.08-2.28c.32-3.44.56-6.38.72-8.84q.3-4.49.59-11.92c.2-4.95.3-8.24.3-9.85V4.08a1.87,1.87,0,0,1,1.87-1.9q5.49,0,12.82,0c5.3,0,10,0,14-.05"/><path class="cls-1" d="M111.58,26.16l-.16,3.24a.44.44,0,0,0,.45.47h2.48c.88,0,2.69,0,5.44-.07l5.33-.13c.46,0,1.09,0,1.91-.09a1.81,1.81,0,0,1,1.9,1.94c-.08,1-.15,2.1-.21,3.17a2.79,2.79,0,0,1-2.8,2.64c-3.46,0-7.17,0-11.14,0l-11.34,0M130.17,5.25,130,8.05c0,.45,0,.9,0,1.36a.47.47,0,0,1-.48.45c-3.11-.13-5.73-.19-7.88-.19h-5c-.8,0-2,0-3.64.1a.46.46,0,0,0-.44.43l-.27,5a.46.46,0,0,0,.44.48q2.88.06,6.63.06,1.38,0,7.17-.16a.45.45,0,0,1,.47.47q-.22,3-.43,6.93a.47.47,0,0,1-.46.44c-2.76,0-4.89-.05-6.41-.05s-2.86,0-3.73,0l-1.14,0M100.4,33.62c.2-3,.72-14.37.92-19.33s.3-8.24.3-9.85a2.22,2.22,0,0,1,2.23-2.25q5.37,0,12.46,0c.83,0,2.17,0,9.6,0"/><path class="cls-1" d="M139.51,2.23c1.32,0,.94,0,2,0,1.41,0,3.25,0,5.54-.12S151.46,2,153.47,2a38.44,38.44,0,0,1,6.05.41,14,14,0,0,1,4.86,1.7,12,12,0,0,1,3.77,3.37,15.27,15.27,0,0,1,2.32,4.89,20.92,20.92,0,0,1,.8,5.76,25,25,0,0,1-.62,5.6,21.06,21.06,0,0,1-1.72,4.86,16.16,16.16,0,0,1-2.59,3.72A15.25,15.25,0,0,1,163,35a14.76,14.76,0,0,1-2.86,1.29,21.4,21.4,0,0,1-4,.75,59.16,59.16,0,0,1-6.31.31l-10.41-.08c-.72,0-1.76,0-3.13,0a1.46,1.46,0,0,1-1.48-1.6q.44-4.74.62-7.77.31-5.27.62-13.61.24-6.39.24-9.14m12.46,24.53a21.32,21.32,0,0,0,4.69-.47,7.45,7.45,0,0,0,3.62-2,9.2,9.2,0,0,0,2.31-3.9,16.52,16.52,0,0,0,.74-4.89A10.94,10.94,0,0,0,159,13.32a6.2,6.2,0,0,0-2.95-2.93,12.48,12.48,0,0,0-5-.82q-1.86,0-4.38.15l-.73,16.62"/><path class="cls-1" d="M182.77,37.33c-.34,0-2.91,0-5.29,0a1.76,1.76,0,0,1-1.76-1.93q.39-3.9.55-6.46.31-4.68.59-12.89c.19-5.47.28-9.16.28-11V4.41a2.24,2.24,0,0,1,2.25-2.23q6.5,0,12.19,0t11.08,0A1.73,1.73,0,0,1,204.39,4c-.11,1.68-.19,3-.24,4.09a1.83,1.83,0,0,1-1.91,1.75h-.38l-1.8,0-1.81,0H191m-3.09,2.91-.08,1.91A1.2,1.2,0,0,0,189,15.88l2.53,0h4.18c1,0,2.29,0,4,0a1.38,1.38,0,0,1,1.4,1.45c-.09,1.71-.15,3.19-.18,4.45a1.69,1.69,0,0,1-1.75,1.65c-1.91-.05-3.38-.08-4.42-.08-2.27,0-4.74,0-7.41.13l-.27,9.28,0,3.45"/><path class="cls-1" d="M220.08,15.49c-.23,5.13-.37,10-.39,11.15-.09,4.61-.13,6.12-.15,8.7a2,2,0,0,1-2,2c-1.75,0-4.21,0-5.63,0H211m-2.87-2.92c.27-3.95.65-9.38.91-15.36.15-3.45.31-8,.37-13.55V3.55a1.34,1.34,0,0,1,1.37-1.36l4.65,0,4.33,0a1.12,1.12,0,0,1,1.12,1.2c-.11,1.36-.2,3.52-.28,5.31"/><path class="cls-1" d="M258.42,14.71A9.29,9.29,0,0,1,257,17.54a9,9,0,0,1-2.37,2.3,17.93,17.93,0,0,1-3.28,1.67.8.8,0,0,0-.43,1l1,2.55c.37.91.78,1.84,1.21,2.78l3.45,7.55h0a1.34,1.34,0,0,1-1.23,1.9l-3.67,0-4.25,0a2.42,2.42,0,0,1-2.36-1.73c-.26-.86-.58-1.93-1-3.22q-.45-1.51-.75-2.34-.63-1.83-1.83-5.13l-1.75-4.78a1.7,1.7,0,0,1,1.64-2.26h.18a10,10,0,0,0,3.41-.56,4.56,4.56,0,0,0,2.32-1.76,4.4,4.4,0,0,0,.79-2.5,3.32,3.32,0,0,0-.59-1.94,3.51,3.51,0,0,0-1.87-1.25,13.6,13.6,0,0,0-3.93-.41c-.6,0-1.23,0-1.87,0h-.49a2,2,0,0,0-1.87,1.84q-.27,4.72-.48,11.09c-.05,1.36-.18,5.25-.27,10.34m-4.19,4.54h-1.47l-3.22,0A1.92,1.92,0,0,1,226,35.19q.33-3.27.54-6c.19-2.43.36-5.23.5-8.43s.24-6.57.31-10.11q.08-4,.09-6.76a1.7,1.7,0,0,1,1.74-1.67c1.37,0,2.53,0,3.47,0,1.38,0,3,0,5-.12s3.9-.11,5.77-.11q3.3,0,5.87.25a14.33,14.33,0,0,1,3.52.75,10.12,10.12,0,0,1,2.67,1.38,8.38,8.38,0,0,1,1.8,1.82"/><path class="cls-1" d="M293.15,5.89,293,8.05c0,.6,0,1.21,0,1.83q-5-.21-8.35-.21h-5l-2.23.05a2,2,0,0,0-1.93,1.89l-.1,2a2,2,0,0,0,2,2.12q2.28,0,5,0c.77,0,2.59,0,5.45-.12a2,2,0,0,1,2.07,2.15c-.08,1.15-.16,2.39-.23,3.72a2,2,0,0,1-2,1.91l-4.91,0q-2.79,0-6.1.11a2,2,0,0,0-1.95,1.92l-.11,2.3a2,2,0,0,0,2,2.11h.84c.88,0,2.69,0,5.44-.07l5.33-.13,1.67-.07a2,2,0,0,1,2.12,2.16q-.14,1.8-.24,3.66a2,2,0,0,1-2,1.91c-3.66,0-7.62,0-11.87,0l-11.34,0h-1.89a1.59,1.59,0,0,1-1.6-1.74q.52-5.49.78-9.38.3-4.49.59-11.92c.2-4.95.3-8.24.3-9.85V4a1.84,1.84,0,0,1,1.85-1.86l2.23,0,20,0"/></g></g></svg>